HIERARCHY
ROOT hip
{
  OFFSET 0 0 0
  CHANNELS 6 Xposition Yposition Zposition Zrotation Yrotation Xrotation
  JOINT abdomen
  {
    OFFSET 0 20.6881 -0.73152
    CHANNELS 3 Zrotation Xrotation Yrotation
    JOINT chest
    {
      OFFSET 0 11.7043 -0.48768
      CHANNELS 3 Zrotation Xrotation Yrotation
      JOINT neck
      {
        OFFSET 0 22.1894 -2.19456
        CHANNELS 3 Zrotation Xrotation Yrotation
        JOINT head
        {
          OFFSET -0.24384 7.07133 1.2192
          CHANNELS 3 Zrotation Xrotation Yrotation
          JOINT leftEye
          {
            OFFSET 4.14528 8.04674 8.04672
            CHANNELS 3 Zrotation Xrotation Yrotation
            End Site
            {
              OFFSET 1 0 0
            }
          }
          JOINT rightEye
          {
            OFFSET -3.6576 8.04674 8.04672
            CHANNELS 3 Zrotation Xrotation Yrotation
            End Site
            {
              OFFSET 1 0 0
            }
          }
        }
      }
      JOINT rCollar
      {
        OFFSET -2.68224 19.2634 -4.8768
        CHANNELS 3 Zrotation Xrotation Yrotation
        JOINT rShldr
        {
          OFFSET -8.77824 -1.95073 1.46304
          CHANNELS 3 Zrotation Xrotation Yrotation
          JOINT rForeArm
          {
            OFFSET -28.1742 -1.7115 0.48768
            CHANNELS 3 Zrotation Xrotation Yrotation
            JOINT rHand
            {
              OFFSET -22.5879 0.773209 7.07136
              CHANNELS 3 Zrotation Xrotation Yrotation
              JOINT rThumb1
              {
                OFFSET -1.2192 -0.487915 3.41376
                CHANNELS 3 Zrotation Xrotation Yrotation
                JOINT rThumb2
                {
                  OFFSET -3.37035 -0.52449 3.41376
                  CHANNELS 3 Zrotation Xrotation Yrotation
                  End Site
                  {
                    OFFSET -1.78271 -1.18214 1.43049
                  }
                }
              }
              JOINT rIndex1
              {
                OFFSET -7.75947 0.938293 5.60832
                CHANNELS 3 Zrotation Xrotation Yrotation
                JOINT rIndex2
                {
                  OFFSET -2.54057 -0.884171 1.56538
                  CHANNELS 3 Zrotation Xrotation Yrotation
                  End Site
                  {
                    OFFSET -1.62519 -0.234802 1.16502
                  }
                }
              }
              JOINT rMid1
              {
                OFFSET -8.24714 1.18213 3.41376
                CHANNELS 3 Zrotation Xrotation Yrotation
                JOINT rMid2
                {
                  OFFSET -3.10165 -0.590103 1.0647
                  CHANNELS 3 Zrotation Xrotation Yrotation
                  End Site
                  {
                    OFFSET -2.48547 -0.328903 0.83742
                  }
                }
              }
              JOINT rRing1
              {
                OFFSET -8.82822 0.546677 1.51678
                CHANNELS 3 Zrotation Xrotation Yrotation
                JOINT rRing2
                {
                  OFFSET -2.60934 -0.819778 -0.0198488
                  CHANNELS 3 Zrotation Xrotation Yrotation
                  End Site
                  {
                    OFFSET -2.33842 -0.294052 0.168128
                  }
                }
              }
              JOINT rPinky1
              {
                OFFSET -8.27202 -0.0477905 -0.4584
                CHANNELS 3 Zrotation Xrotation Yrotation
                JOINT rPinky2
                {
                  OFFSET -1.82734 -0.647385 -0.700984
                  CHANNELS 3 Zrotation Xrotation Yrotation
                  End Site
                  {
                    OFFSET -1.69225 -0.51767 -0.607171
                  }
                }
              }
            }
          }
        }
      }
      JOINT lCollar
      {
        OFFSET 2.68224 19.2634 -4.8768
        CHANNELS 3 Zrotation Xrotation Yrotation
        JOINT lShldr
        {
          OFFSET 8.77824 -1.95073 1.46304
          CHANNELS 3 Zrotation Xrotation Yrotation
          JOINT lForeArm
          {
            OFFSET 28.1742 -1.7115 0.48768
            CHANNELS 3 Zrotation Xrotation Yrotation
            JOINT lHand
            {
              OFFSET 22.5879 0.773209 7.07136
              CHANNELS 3 Zrotation Xrotation Yrotation
              JOINT lThumb1
              {
                OFFSET 1.2192 -0.487915 3.41376
                CHANNELS 3 Zrotation Xrotation Yrotation
                JOINT lThumb2
                {
                  OFFSET 3.37035 -0.52449 3.41376
                  CHANNELS 3 Zrotation Xrotation Yrotation
                  End Site
                  {
                    OFFSET 1.78271 -1.18214 1.43049
                  }
                }
              }
              JOINT lIndex1
              {
                OFFSET 7.75947 0.938293 5.60832
                CHANNELS 3 Zrotation Xrotation Yrotation
                JOINT lIndex2
                {
                  OFFSET 2.54057 -0.884171 1.56538
                  CHANNELS 3 Zrotation Xrotation Yrotation
                  End Site
                  {
                    OFFSET 1.62519 -0.234802 1.16502
                  }
                }
              }
              JOINT lMid1
              {
                OFFSET 8.24714 1.18213 3.41376
                CHANNELS 3 Zrotation Xrotation Yrotation
                JOINT lMid2
                {
                  OFFSET 3.10165 -0.590103 1.0647
                  CHANNELS 3 Zrotation Xrotation Yrotation
                  End Site
                  {
                    OFFSET 2.48547 -0.328903 0.83742
                  }
                }
              }
              JOINT lRing1
              {
                OFFSET 8.82822 0.546677 1.51678
                CHANNELS 3 Zrotation Xrotation Yrotation
                JOINT lRing2
                {
                  OFFSET 2.60934 -0.819778 -0.0198488
                  CHANNELS 3 Zrotation Xrotation Yrotation
                  End Site
                  {
                    OFFSET 2.33842 -0.294052 0.168128
                  }
                }
              }
              JOINT lPinky1
              {
                OFFSET 8.27202 -0.0477905 -0.4584
                CHANNELS 3 Zrotation Xrotation Yrotation
                JOINT lPinky2
                {
                  OFFSET 1.82734 -0.647385 -0.700984
                  CHANNELS 3 Zrotation Xrotation Yrotation
                  End Site
                  {
                    OFFSET 1.69225 -0.51767 -0.607171
                  }
                }
              }
            }
          }
        }
      }
    }
  }
  JOINT rButtock
  {
    OFFSET -8.77824 4.35084 1.2192
    CHANNELS 3 Zrotation Xrotation Yrotation
    JOINT rThigh
    {
      OFFSET 0 -1.70687 -2.19456
      CHANNELS 3 Zrotation Xrotation Yrotation
      JOINT rShin
      {
        OFFSET 0 -36.8199 0.73152
        CHANNELS 3 Zrotation Xrotation Yrotation
        JOINT rFoot
        {
          OFFSET 0.73152 -45.1104 -5.12064
          CHANNELS 3 Zrotation Xrotation Yrotation
          End Site
          {
            OFFSET -1.1221 -3.69964 12.103
          }
        }
      }
    }
  }
  JOINT lButtock
  {
    OFFSET 8.77824 4.35084 1.2192
    CHANNELS 3 Zrotation Xrotation Yrotation
    JOINT lThigh
    {
      OFFSET 0 -1.70687 -2.19456
      CHANNELS 3 Zrotation Xrotation Yrotation
      JOINT lShin
      {
        OFFSET 0 -36.8199 0.73152
        CHANNELS 3 Zrotation Xrotation Yrotation
        JOINT lFoot
        {
          OFFSET -0.73152 -45.1104 -5.12064
          CHANNELS 3 Zrotation Xrotation Yrotation
          End Site
          {
            OFFSET 1.1221 -3.69964 12.103
          }
        }
      }
    }
  }
}
MOTION
Frames:	4
Frame Time:	0.03333
0.0 0.0 0.0 0.0 0.0 0.0 0.0 0.0 0.0 0.0 0.0 0.0 0.0 0.0 0.0 0.0 0.0 0.0 0.0 0.0 0.0 0.0 0.0 0.0 0.0 0.0 0.0 0.0 0.0 0.0 0.0 0.0 0.0 0.0 0.0 0.0 0.0 0.0 0.0 0.0 0.0 0.0 0.0 0.0 0.0 0.0 0.0 0.0 0.0 0.0 0.0 0.0 0.0 0.0 0.0 0.0 0.0 0.0 0.0 0.0 0.0 0.0 0.0 0.0 0.0 0.0 0.0 0.0 0.0 0.0 0.0 0.0 0.0 0.0 0.0 0.0 0.0 0.0 0.0 0.0 0.0 0.0 0.0 0.0 0.0 0.0 0.0 0.0 0.0 0.0 0.0 0.0 0.0 0.0 0.0 0.0 0.0 0.0 0.0 0.0 0.0 0.0 0.0 0.0 0.0 0.0 0.0 0.0 0.0 0.0 0.0 0.0 0.0 0.0 0.0 0.0 0.0 0.0 0.0 0.0 0.0 0.0 0.0 0.0 0.0 0.0 0.0 0.0 0.0 0.0 0.0 0.0
-0.11 45.542 0.5496 168.999082 83.614154 178.222819 -5.78383 20.276916 1.783752 6.614495 -15.275502 -11.169755 -14.033262 34.913448 -109.918717 42.973561 28.831429 46.994478 -0.001317 0.0 -0.000265 -0.001317 0.0 -0.000265 -13.947137 42.75045 15.784275 -173.205256 -40.844369 132.418283 174.214734 -58.647284 22.949287 -179.340936 -3.806688 143.23186 -166.630934 -4.30502 89.771583 -97.663445 9.724056 40.505232 -108.427257 34.161771 91.743725 -144.724851 21.601519 109.67631 6.533005 -20.414949 -2.717904 -175.281282 -39.356935 143.331455 -114.670027 66.731819 135.092815 6.168259 7.519001 -4.788737 -136.959369 -9.523338 -134.261714 -149.678438 19.444276 -143.449335 9.651742 34.836248 -11.198831 -78.168164 -8.878693 -62.941745 -148.131311 1.188844 -25.475476 171.118159 27.824208 -140.844488 -169.031339 -27.077928 -86.618034 12.58692 -54.532255 8.142387 -5.228003 -8.933283 2.664623 65.12854 48.610248 -51.029332 8.305499 20.652555 -5.561332 -13.219635 -30.036078 1.401749 -0.000495 0.036441 -0.010857 -11.108696 -13.792189 1.711525 86.000867 -50.497076 84.370797 -11.44995 24.59305 -4.777961 179.994023 75.748789 0.00409 155.054036 -13.889914 -93.396085 -102.185318 -14.011944 156.119134 -53.118823 48.928986 -37.049394 -179.987577 75.748788 -0.010221 -138.329912 -1.226796 -180.0 -133.721811 -65.498114 119.969661 -146.30199 29.419716 32.005454
-0.1153 46.0288 0.9022 167.38214 84.002492 176.663767 -4.363685 16.371278 -143.047578 2.445005 11.907948 132.197435 -11.445886 21.710376 -27.721015 29.281377 -24.308046 -19.179755 -0.001053 0.0 -0.00223 -0.001053 0.0 -0.00223 -130.419744 54.548891 134.287113 108.471236 -52.01429 112.451242 109.042023 59.725293 94.0518 -166.643722 30.748486 137.693778 -175.198851 -12.845923 89.806812 -135.74985 12.275438 68.571556 24.074881 -42.306746 -5.559106 -62.837627 50.54397 51.483244 -0.33921 0.981997 0.189483 -170.27282 -26.252424 144.301768 -145.098938 -1.520965 -178.649882 12.048398 29.596317 -5.641414 -163.644303 74.574499 -150.512847 -94.9619 -50.70004 -93.203605 -0.022893 -0.1386 0.031418 -71.593833 8.777422 -30.788989 -6.761591 36.17851 -106.650271 10.148041 21.06926 -0.324893 85.829879 38.63048 -47.955068 -27.364011 -29.71477 -21.363767 2.685683 4.227211 -1.582143 -1.951624 12.377389 -2.28298 82.840751 61.11197 -74.532101 -3.352401 0.218027 -0.186051 66.264497 72.867809 -83.837403 -5.081271 27.274965 0.654698 -25.916836 79.093751 -10.83369 22.904117 -38.423219 23.005906 179.9961 75.747981 0.004024 154.762053 -12.921772 -43.715124 -100.540149 24.285389 54.814132 -125.440859 -43.780868 -13.531325 179.977998 75.74798 0.018103 -137.510276 0.901658 -90.340923 -102.970336 5.050503 15.203949 32.696524 27.801976 74.17673
-0.0996 46.5444 1.3469 163.188328 84.305738 172.681026 -5.531606 16.27085 -169.475479 -4.242372 11.547037 159.841885 -14.195835 24.812014 -49.813545 39.99052 -12.243975 1.644127 0.000777 0.0 0.001748 0.000777 0.0 0.001748 -0.27306 1.606846 0.360685 -120.7296 26.004336 162.596431 1.023733 3.526651 -146.528393 178.20603 -11.8032 143.425012 9.728371 -9.717586 -0.67722 -38.520251 28.984724 29.733483 -155.193893 -24.300138 122.142086 -171.441235 -36.066065 117.489567 -82.840519 61.110673 74.532342 -88.544 63.894414 80.467326 -0.002112 -0.060863 -0.018957 10.322315 0.212847 -0.040351 -13.277982 -25.410191 -12.632833 -158.716038 54.118554 -149.823258 85.537463 68.181727 -88.688832 -170.062136 17.787116 -113.98155 57.703972 17.868487 -179.736433 -27.3376 -59.512734 -14.831283 -90.437362 -50.938518 -38.665186 33.333255 4.691468 8.227363 27.171521 30.468853 -19.890437 161.184447 -7.784738 -110.910291 161.518792 -9.304353 -143.625087 34.806411 54.912833 -29.485607 69.299578 72.946462 -87.017135 159.839072 0.068215 -176.168404 152.502918 38.523735 147.797025 152.200538 24.541383 144.388759 -179.993817 75.750849 -0.005088 154.017593 -12.61021 -6.611627 -112.973463 69.308618 151.16821 -31.309942 8.312451 -38.815196 -179.999199 75.749038 -0.000826 -138.871828 3.133558 -1.741409 161.39726 78.772064 123.550364 42.81842 -55.399478 110.119201
